M48
; DRILL file {KiCad 9.0.4-9.0.4-0~ubuntu24.04.1} date 2026-01-14T21:15:59-0500
; FORMAT={-:-/ absolute / metric / decimal}
; #@! TF.CreationDate,2026-01-14T21:15:59-05:00
; #@! TF.GenerationSoftware,Kicad,Pcbnew,9.0.4-9.0.4-0~ubuntu24.04.1
; #@! TF.FileFunction,Plated,1,4,PTH
FMAT,2
METRIC
; #@! TA.AperFunction,Plated,PTH,ViaDrill
T1C0.300
; #@! TA.AperFunction,Plated,PTH,ComponentDrill
T2C1.000
; #@! TA.AperFunction,Plated,PTH,ComponentDrill
T3C1.200
; #@! TA.AperFunction,Plated,PTH,ComponentDrill
T4C1.300
; #@! TA.AperFunction,Plated,PTH,ComponentDrill
T5C1.600
; #@! TA.AperFunction,Plated,PTH,ComponentDrill
T6C1.900
; #@! TA.AperFunction,Plated,PTH,ComponentDrill
T7C3.300
; #@! TA.AperFunction,Plated,PTH,ComponentDrill
T8C5.300
%
G90
G05
T1
X62.0Y-140.3
X62.0Y-141.15
X62.025Y-54.475
X62.025Y-55.325
X62.025Y-141.95
X62.05Y-56.125
X62.15Y-50.85
X62.15Y-51.7
X62.175Y-52.5
X62.9Y-140.3
X62.9Y-141.15
X62.925Y-54.475
X62.925Y-55.325
X62.925Y-141.95
X62.95Y-56.125
X63.05Y-50.85
X63.05Y-51.7
X63.075Y-52.5
X63.65Y-80.74
X63.65Y-84.98
X63.68Y-72.13
X63.68Y-76.37
X63.68Y-77.79
X63.68Y-79.11
X63.68Y-82.03
X63.68Y-83.35
X63.71Y-69.18
X63.71Y-70.5
X63.71Y-73.42
X63.71Y-74.74
X63.825Y-140.275
X63.825Y-141.125
X63.85Y-54.45
X63.85Y-55.3
X63.85Y-141.925
X63.875Y-56.1
X63.975Y-50.825
X63.975Y-51.675
X64.0Y-52.475
X66.15Y-109.65
X66.15Y-111.25
X66.15Y-112.85
X66.15Y-119.25
X66.15Y-120.85
X66.15Y-122.45
X66.15Y-124.05
X66.2Y-114.4
X66.2Y-116.0
X66.2Y-117.6
X66.2Y-125.6
X66.2Y-127.2
X66.2Y-128.8
X66.725Y-93.125
X66.725Y-93.975
X66.75Y-94.775
X67.4Y-108.6
X67.625Y-93.125
X67.625Y-93.975
X67.65Y-94.775
X68.4Y-107.6
X68.55Y-93.1
X68.55Y-93.95
X68.575Y-94.75
X69.25Y-124.55
X69.4Y-106.8
X69.525Y-126.75
X69.55Y-122.5
X70.345Y-105.983
X70.575Y-121.375
X70.675Y-133.675
X70.8Y-141.2
X70.8Y-142.05
X70.825Y-128.15
X70.825Y-142.85
X71.125Y-149.125
X71.125Y-149.975
X71.15Y-150.775
X71.278Y-105.05
X71.305Y-97.843
X71.6Y-40.475
X71.6Y-41.325
X71.625Y-42.125
X71.7Y-141.2
X71.7Y-142.05
X71.725Y-142.85
X72.025Y-149.125
X72.025Y-149.975
X72.05Y-150.775
X72.225Y-133.675
X72.238Y-96.91
X72.452Y-103.918
X72.5Y-40.475
X72.5Y-41.325
X72.5Y-128.925
X72.525Y-42.125
X72.625Y-141.175
X72.625Y-142.025
X72.65Y-142.825
X72.95Y-149.1
X72.95Y-149.95
X72.975Y-150.75
X73.19Y-51.32
X73.343Y-102.985
X73.412Y-95.778
X73.425Y-40.45
X73.425Y-41.3
X73.45Y-42.1
X73.81Y-61.76
X74.276Y-102.051
X74.303Y-94.845
X74.364Y-50.189
X74.984Y-60.629
X75.236Y-93.911
X75.297Y-49.255
X75.35Y-128.9
X75.45Y-100.92
X75.917Y-59.695
X76.41Y-92.78
X76.6Y-85.375
X76.6Y-87.025
X76.65Y-88.525
X76.665Y-99.643
X77.598Y-98.71
X78.2Y-67.6
X78.575Y-128.975
X78.772Y-97.578
X79.663Y-96.645
X80.2Y-50.1
X80.23Y-47.15
X80.23Y-48.47
X80.315Y-60.625
X80.596Y-95.711
X81.77Y-94.58
X81.915Y-60.625
X82.0Y-136.8
X82.0Y-137.5
X82.0Y-138.2
X82.0Y-138.9
X82.4Y-86.975
X82.65Y-89.33
X82.8Y-136.8
X82.8Y-137.5
X82.8Y-138.2
X82.8Y-138.9
X83.19Y-108.97
X83.425Y-60.625
X83.45Y-128.9
X83.55Y-101.425
X83.55Y-102.275
X83.575Y-103.075
X83.6Y-136.8
X83.6Y-137.5
X83.6Y-138.2
X83.6Y-138.9
X83.8Y-113.3
X84.0Y-88.8
X84.45Y-101.425
X84.45Y-102.275
X84.475Y-103.075
X84.51Y-108.97
X85.025Y-60.625
X85.2Y-113.3
X85.3Y-136.8
X85.3Y-137.5
X85.3Y-138.2
X85.3Y-138.9
X85.375Y-101.4
X85.375Y-102.25
X85.4Y-103.05
X86.1Y-136.8
X86.1Y-137.5
X86.1Y-138.2
X86.1Y-138.9
X86.14Y-109.0
X86.3Y-82.475
X86.625Y-60.625
X86.7Y-113.3
X86.9Y-136.8
X86.9Y-137.5
X86.9Y-138.2
X86.9Y-138.9
X87.43Y-108.97
X87.45Y-121.08
X87.8Y-82.475
X87.97Y-74.8
X88.225Y-60.625
X88.425Y-128.85
X88.75Y-108.97
X88.75Y-119.55
X88.75Y-122.35
X89.55Y-82.525
X89.6Y-74.83
X89.8Y-95.8
X89.825Y-60.625
X90.0Y-90.4
X90.0Y-93.6
X90.2Y-113.3
X90.2Y-121.05
X90.38Y-109.0
X90.4Y-87.8
X90.55Y-83.75
X90.7Y-119.1
X90.92Y-74.83
X91.2Y-95.8
X91.4Y-90.4
X91.4Y-93.6
X91.49Y-60.6
X91.5Y-84.825
X91.6Y-113.3
X91.8Y-87.8
X92.33Y-74.83
X92.4Y-79.125
X93.0Y-113.3
X93.09Y-60.6
X93.3Y-120.375
X93.3Y-121.225
X93.325Y-122.025
X93.76Y-74.83
X94.15Y-128.875
X94.2Y-120.375
X94.2Y-121.225
X94.225Y-122.025
X94.3Y-109.1
X94.475Y-81.1
X94.5Y-113.3
X94.6Y-60.6
X94.6Y-87.6
X94.6Y-90.4
X94.6Y-93.6
X94.6Y-95.8
X94.6Y-98.0
X95.125Y-120.35
X95.125Y-121.2
X95.15Y-122.0
X95.18Y-74.83
X95.5Y-82.125
X95.55Y-99.05
X95.55Y-100.65
X95.55Y-102.25
X95.55Y-103.85
X95.6Y-105.4
X95.6Y-107.0
X95.7Y-109.1
X96.0Y-87.6
X96.0Y-90.4
X96.0Y-93.6
X96.0Y-95.8
X96.0Y-98.0
X96.16Y-75.65
X96.2Y-60.6
X96.45Y-83.075
X96.925Y-76.575
X97.2Y-109.1
X97.4Y-87.6
X97.4Y-90.4
X97.4Y-93.6
X97.4Y-95.8
X97.4Y-98.0
X97.8Y-60.6
X97.925Y-77.75
X98.5Y-113.4
X98.55Y-115.25
X98.55Y-116.85
X98.55Y-118.45
X98.55Y-120.05
X98.6Y-121.6
X98.6Y-123.2
X98.6Y-124.8
X99.025Y-78.8
X99.25Y-71.75
X99.25Y-128.9
X99.4Y-60.6
X100.1Y-79.95
X100.1Y-113.4
X100.4Y-90.4
X100.4Y-93.6
X100.4Y-96.0
X100.5Y-109.2
X100.87Y-87.6
X101.0Y-60.6
X101.83Y-89.32
X102.05Y-74.55
X102.19Y-87.6
X102.6Y-60.6
X102.8Y-68.4
X103.125Y-128.875
X103.2Y-90.2
X103.2Y-93.6
X103.2Y-96.0
X103.4Y-109.1
X103.4Y-113.3
X103.6Y-87.6
X104.2Y-60.6
X104.65Y-77.25
X104.7Y-90.2
X104.7Y-93.5
X104.8Y-109.1
X104.8Y-113.3
X104.9Y-95.9
X105.03Y-87.6
X105.6Y-60.6
X105.65Y-71.25
X106.1Y-90.2
X106.1Y-93.5
X106.2Y-109.1
X106.2Y-113.3
X106.3Y-95.9
X106.4Y-65.0
X106.45Y-87.6
X106.6Y-59.6
X107.5Y-90.2
X107.5Y-93.5
X107.7Y-65.8
X107.7Y-95.9
X107.7Y-109.1
X107.7Y-113.3
X108.05Y-87.6
X108.15Y-73.75
X108.661Y-64.946
X108.669Y-66.869
X108.875Y-88.575
X109.0Y-60.6
X109.075Y-128.925
X109.125Y-125.325
X109.15Y-121.0
X109.15Y-122.6
X109.15Y-124.0
X109.2Y-113.35
X109.2Y-114.95
X109.2Y-116.35
X109.2Y-117.95
X109.2Y-119.55
X109.225Y-132.4
X109.3Y-89.875
X109.3Y-102.9
X109.3Y-104.5
X109.3Y-105.9
X109.3Y-107.5
X109.3Y-109.1
X109.35Y-98.25
X109.35Y-99.85
X109.35Y-101.45
X109.42Y-95.91
X109.48Y-93.53
X109.8Y-68.0
X110.4Y-60.6
X111.25Y-68.8
X112.538Y-71.138
X113.67Y-72.27
X114.25Y-132.65
X114.275Y-125.15
X114.3Y-89.25
X114.33Y-93.59
X114.33Y-95.94
X114.4Y-128.875
X114.801Y-73.401
X115.0Y-60.6
X115.869Y-74.469
X116.4Y-60.6
X117.0Y-75.6
X117.601Y-76.749
X117.8Y-60.6
X118.732Y-75.618
X119.26Y-93.57
X119.325Y-89.25
X119.325Y-132.725
X119.34Y-95.89
X119.35Y-125.15
X119.35Y-128.875
X119.8Y-74.55
X120.451Y-79.199
X120.8Y-60.6
X120.931Y-73.419
X121.582Y-78.068
X122.063Y-72.287
X122.2Y-60.6
X122.525Y-77.2
X123.4Y-82.05
X123.656Y-76.069
X124.3Y-121.25
X124.3Y-122.85
X124.3Y-124.1
X124.325Y-125.3
X124.35Y-102.85
X124.35Y-104.45
X124.35Y-105.85
X124.35Y-107.45
X124.35Y-109.05
X124.35Y-113.6
X124.35Y-115.2
X124.35Y-116.6
X124.35Y-118.2
X124.35Y-119.8
X124.4Y-98.2
X124.4Y-99.8
X124.4Y-101.4
X124.42Y-93.52
X124.43Y-95.91
X124.475Y-128.925
X124.5Y-75.25
X124.531Y-80.919
X124.6Y-83.89
X124.6Y-85.49
X124.6Y-87.09
X124.6Y-88.6
X124.6Y-90.2
X124.625Y-132.55
X125.631Y-74.119
X125.7Y-93.6
X126.0Y-90.2
X126.595Y-73.155
X126.85Y-108.88
X127.1Y-93.6
X127.4Y-90.2
X127.726Y-72.024
X127.95Y-100.1
X128.0Y-103.65
X128.0Y-113.4
X128.05Y-105.8
X128.1Y-107.45
X128.2Y-109.2
X128.425Y-128.775
X128.5Y-93.6
X128.669Y-71.156
X128.8Y-90.2
X129.04Y-101.48
X129.425Y-121.675
X129.425Y-122.525
X129.45Y-123.325
X129.475Y-81.225
X129.475Y-82.075
X129.5Y-82.875
X129.8Y-70.025
X130.05Y-50.95
X130.05Y-52.55
X130.05Y-54.15
X130.05Y-55.75
X130.1Y-57.3
X130.1Y-58.9
X130.1Y-60.5
X130.225Y-113.438
X130.325Y-121.675
X130.325Y-122.525
X130.35Y-123.325
X130.375Y-81.225
X130.375Y-82.075
X130.375Y-109.2
X130.4Y-82.875
X130.644Y-69.206
X131.0Y-137.275
X131.0Y-138.125
X131.025Y-138.925
X131.25Y-121.65
X131.25Y-122.5
X131.275Y-123.3
X131.3Y-81.2
X131.3Y-82.05
X131.325Y-82.85
X131.775Y-68.075
X131.85Y-113.4
X131.875Y-128.8
X131.9Y-137.275
X131.9Y-138.125
X131.925Y-138.925
X132.1Y-109.2
X132.675Y-96.65
X132.675Y-97.5
X132.7Y-98.3
X132.825Y-137.25
X132.825Y-138.1
X132.85Y-138.9
X132.9Y-67.0
X133.259Y-72.241
X133.35Y-113.425
X133.575Y-96.65
X133.575Y-97.5
X133.6Y-98.3
X133.95Y-109.125
X134.32Y-71.18
X134.5Y-96.625
X134.5Y-97.475
X134.525Y-98.275
X134.65Y-128.875
X135.1Y-113.4
X135.31Y-70.19
X135.45Y-109.1
X136.3Y-69.2
X136.4Y-113.4
X136.9Y-109.1
X137.259Y-68.241
X137.325Y-128.4
X137.5Y-113.4
X138.3Y-109.1
X138.32Y-67.18
X138.85Y-113.425
X139.31Y-66.19
X139.425Y-128.4
X139.7Y-109.1
X139.975Y-113.425
X140.3Y-65.2
X140.8Y-59.4
X140.8Y-60.8
X140.8Y-62.2
X140.8Y-63.7
X141.2Y-109.1
X141.3Y-113.4
X142.5Y-109.1
X142.7Y-113.4
X142.85Y-106.1
X143.05Y-104.5
X143.35Y-49.55
X143.35Y-51.15
X143.35Y-52.75
X143.45Y-54.5
X143.45Y-56.1
X143.45Y-57.7
X143.65Y-107.6
X143.9Y-109.1
X144.1Y-113.4
X144.15Y-103.75
X144.25Y-48.1
X144.85Y-62.45
X144.85Y-64.05
X144.85Y-65.65
X144.85Y-67.16
X144.85Y-68.76
X144.85Y-70.36
X144.85Y-71.76
X144.85Y-73.36
X144.85Y-74.96
X144.85Y-77.1
X144.85Y-78.7
X144.85Y-80.3
X144.85Y-81.7
X144.85Y-83.3
X144.85Y-84.9
X144.9Y-86.75
X144.9Y-88.35
X144.9Y-89.95
X144.9Y-91.35
X144.9Y-92.95
X144.9Y-94.55
X144.9Y-96.2
X144.95Y-98.05
X144.95Y-99.65
X144.95Y-101.25
X144.95Y-102.65
X145.3Y-107.85
X145.3Y-109.1
X145.6Y-113.4
X145.9Y-104.0
X145.95Y-61.35
X146.275Y-127.95
X146.8Y-109.1
X146.85Y-107.9
X147.0Y-113.4
X147.1Y-60.3
X147.75Y-127.925
X147.8Y-108.75
X148.05Y-59.25
X148.125Y-51.5
X148.2Y-50.0
X148.225Y-53.25
X148.225Y-54.85
X148.225Y-56.45
X148.225Y-57.85
X148.4Y-113.4
X148.95Y-109.45
X149.22Y-60.658
X149.732Y-60.146
X149.8Y-113.4
X149.825Y-50.65
X149.825Y-53.15
X149.85Y-51.85
X150.086Y-61.489
X150.192Y-59.686
X150.45Y-62.925
X150.55Y-50.65
X150.55Y-53.15
X150.575Y-51.85
X150.598Y-60.977
X150.634Y-59.244
X150.987Y-62.426
X151.058Y-60.517
X151.129Y-58.749
X151.2Y-50.65
X151.2Y-53.15
X151.2Y-127.475
X151.225Y-51.85
X151.3Y-113.4
X151.35Y-132.05
X151.5Y-60.075
X151.5Y-61.913
X151.825Y-50.65
X151.825Y-53.15
X151.85Y-51.85
X151.96Y-61.454
X151.995Y-59.58
X152.05Y-101.95
X152.1Y-81.25
X152.15Y-83.7
X152.15Y-103.1
X152.2Y-104.25
X152.25Y-65.5
X152.25Y-77.55
X152.3Y-67.45
X152.3Y-69.6
X152.4Y-72.25
X152.4Y-74.7
X152.402Y-61.012
X152.45Y-94.35
X152.5Y-98.5
X152.5Y-100.85
X152.525Y-50.65
X152.525Y-53.15
X152.55Y-51.85
X152.6Y-92.3
X152.65Y-90.25
X152.7Y-86.9
X152.7Y-88.45
X152.725Y-133.825
X152.8Y-113.4
X152.875Y-136.075
X153.15Y-102.0
X153.15Y-103.1
X153.3Y-63.8
X153.3Y-104.25
X153.3Y-105.4
X153.8Y-114.2
X153.85Y-127.475
X154.25Y-103.1
X154.725Y-85.55
X154.725Y-88.05
X154.75Y-86.75
X154.75Y-92.325
X154.75Y-94.825
X154.775Y-71.675
X154.775Y-74.175
X154.775Y-93.525
X154.8Y-72.875
X154.8Y-115.2
X154.825Y-131.25
X154.9Y-62.1
X155.375Y-52.475
X155.375Y-53.325
X155.4Y-54.125
X155.45Y-85.55
X155.45Y-88.05
X155.475Y-86.75
X155.475Y-92.325
X155.475Y-94.825
X155.5Y-71.675
X155.5Y-74.175
X155.5Y-93.525
X155.525Y-72.875
X155.55Y-107.9
X155.675Y-124.95
X155.7Y-125.95
X155.7Y-127.0
X155.8Y-116.2
X156.1Y-85.55
X156.1Y-88.05
X156.125Y-86.75
X156.125Y-92.325
X156.125Y-94.825
X156.15Y-60.55
X156.15Y-71.675
X156.15Y-74.175
X156.15Y-93.525
X156.175Y-72.875
X156.275Y-52.475
X156.275Y-53.325
X156.3Y-54.125
X156.55Y-139.625
X156.625Y-136.85
X156.725Y-85.55
X156.725Y-88.05
X156.75Y-86.75
X156.75Y-92.325
X156.75Y-94.825
X156.775Y-71.675
X156.775Y-74.175
X156.775Y-93.525
X156.8Y-72.875
X156.8Y-109.15
X156.8Y-117.2
X157.2Y-52.45
X157.2Y-53.3
X157.225Y-54.1
X157.425Y-85.55
X157.425Y-88.05
X157.45Y-86.75
X157.45Y-92.325
X157.45Y-94.825
X157.45Y-129.975
X157.475Y-71.675
X157.475Y-74.175
X157.475Y-93.525
X157.5Y-72.875
X157.8Y-118.2
X157.9Y-110.2
X158.8Y-119.2
X158.85Y-107.35
X159.1Y-111.4
X159.8Y-120.2
X160.15Y-108.35
X160.2Y-121.2
X160.4Y-122.8
X160.4Y-124.2
X160.4Y-125.6
X160.45Y-112.75
X160.8Y-127.0
X160.99Y-69.4
X160.99Y-70.91
X160.99Y-72.51
X160.99Y-74.11
X160.99Y-75.51
X160.99Y-77.11
X160.99Y-78.71
X160.99Y-80.85
X160.99Y-82.45
X160.99Y-84.05
X160.99Y-85.45
X160.99Y-87.05
X160.99Y-88.65
X161.04Y-90.5
X161.04Y-92.1
X161.04Y-93.7
X161.04Y-95.1
X161.04Y-96.7
X161.04Y-98.3
X161.1Y-107.7
X161.3Y-109.5
X161.35Y-113.85
X161.75Y-121.425
X161.75Y-123.925
X161.775Y-122.625
X161.8Y-128.0
X162.475Y-121.425
X162.475Y-123.925
X162.5Y-122.625
X162.8Y-128.8
X163.125Y-121.425
X163.125Y-123.925
X163.15Y-122.625
X163.298Y-53.452
X163.298Y-55.052
X163.298Y-56.562
X163.45Y-108.7
X163.65Y-114.05
X163.75Y-121.425
X163.75Y-123.925
X163.775Y-122.625
X164.45Y-121.425
X164.45Y-123.925
X164.475Y-122.625
X164.65Y-108.65
X164.825Y-50.525
X164.825Y-53.025
X164.85Y-51.725
X164.85Y-58.925
X164.85Y-61.425
X164.875Y-60.125
X165.55Y-50.525
X165.55Y-53.025
X165.575Y-51.725
X165.575Y-58.925
X165.575Y-61.425
X165.6Y-60.125
X165.9Y-108.7
X166.2Y-50.525
X166.2Y-53.025
X166.225Y-51.725
X166.225Y-58.925
X166.225Y-61.425
X166.25Y-60.125
X166.4Y-113.825
X166.4Y-114.65
X166.825Y-50.525
X166.825Y-53.025
X166.85Y-51.725
X166.85Y-58.925
X166.85Y-61.425
X166.875Y-60.125
X166.9Y-74.625
X166.9Y-75.475
X166.925Y-76.275
X166.925Y-89.7
X166.925Y-90.55
X166.95Y-91.35
X167.25Y-65.475
X167.25Y-67.975
X167.275Y-66.675
X167.275Y-69.025
X167.275Y-71.525
X167.275Y-113.825
X167.275Y-114.65
X167.275Y-115.45
X167.3Y-70.225
X167.3Y-112.925
X167.3Y-122.55
X167.525Y-50.525
X167.525Y-53.025
X167.525Y-95.275
X167.525Y-97.775
X167.55Y-51.725
X167.55Y-58.925
X167.55Y-61.425
X167.55Y-96.475
X167.55Y-98.825
X167.55Y-101.325
X167.575Y-60.125
X167.575Y-100.025
X167.65Y-79.325
X167.65Y-81.825
X167.675Y-80.525
X167.675Y-82.875
X167.675Y-85.375
X167.7Y-84.075
X167.8Y-74.625
X167.8Y-75.475
X167.825Y-76.275
X167.825Y-89.7
X167.825Y-90.55
X167.85Y-91.35
X167.975Y-65.475
X167.975Y-67.975
X168.0Y-66.675
X168.0Y-69.025
X168.0Y-71.525
X168.025Y-70.225
X168.15Y-113.825
X168.15Y-114.65
X168.15Y-115.45
X168.175Y-111.3
X168.175Y-112.125
X168.175Y-112.925
X168.25Y-95.275
X168.25Y-97.775
X168.275Y-96.475
X168.275Y-98.825
X168.275Y-101.325
X168.3Y-100.025
X168.375Y-79.325
X168.375Y-81.825
X168.4Y-80.525
X168.4Y-82.875
X168.4Y-85.375
X168.425Y-84.075
X168.525Y-116.6
X168.525Y-117.425
X168.525Y-118.225
X168.55Y-119.25
X168.55Y-120.075
X168.55Y-120.875
X168.625Y-65.475
X168.625Y-67.975
X168.65Y-66.675
X168.65Y-69.025
X168.65Y-71.525
X168.675Y-70.225
X168.7Y-122.9
X168.725Y-74.6
X168.725Y-75.45
X168.75Y-76.25
X168.75Y-89.675
X168.75Y-90.525
X168.775Y-91.325
X168.9Y-95.275
X168.9Y-97.775
X168.925Y-96.475
X168.925Y-98.825
X168.925Y-101.325
X168.95Y-100.025
X169.025Y-53.275
X169.025Y-54.875
X169.025Y-56.385
X169.025Y-79.325
X169.025Y-81.825
X169.05Y-80.525
X169.05Y-82.875
X169.05Y-85.375
X169.05Y-113.825
X169.05Y-114.65
X169.05Y-115.45
X169.075Y-84.075
X169.075Y-111.3
X169.075Y-112.125
X169.075Y-112.925
X169.25Y-65.475
X169.25Y-67.975
X169.275Y-66.675
X169.275Y-69.025
X169.275Y-71.525
X169.3Y-70.225
X169.425Y-116.6
X169.425Y-117.425
X169.425Y-118.225
X169.45Y-119.25
X169.45Y-120.075
X169.45Y-120.875
X169.525Y-95.275
X169.525Y-97.775
X169.55Y-96.475
X169.55Y-98.825
X169.55Y-101.325
X169.575Y-100.025
X169.65Y-79.325
X169.65Y-81.825
X169.675Y-80.525
X169.675Y-82.875
X169.675Y-85.375
X169.7Y-84.075
X169.95Y-63.925
X169.95Y-65.475
X169.95Y-67.975
X169.975Y-66.675
X169.975Y-69.025
X169.975Y-71.525
X170.0Y-70.225
X170.225Y-95.275
X170.225Y-97.775
X170.25Y-96.475
X170.25Y-98.825
X170.25Y-101.325
X170.275Y-100.025
X170.35Y-79.325
X170.35Y-81.825
X170.375Y-80.525
X170.375Y-82.875
X170.375Y-85.375
X170.4Y-84.075
X170.65Y-122.9
X170.675Y-119.2
X170.675Y-120.025
X170.675Y-120.825
X171.0Y-63.925
X171.55Y-119.2
X171.55Y-120.025
X171.55Y-120.825
X171.6Y-102.9
X171.625Y-103.9
X171.625Y-104.95
X172.0Y-63.9
X172.075Y-87.425
X172.075Y-88.475
X172.1Y-89.475
X172.425Y-119.2
X172.425Y-120.025
X172.425Y-120.825
X172.8Y-122.95
X172.95Y-102.0
X173.05Y-60.075
X173.325Y-119.2
X173.325Y-120.025
X173.325Y-120.825
X173.375Y-90.375
X173.545Y-60.57
X173.881Y-59.209
X173.987Y-61.012
X174.0Y-102.0
X174.05Y-112.45
X174.092Y-113.699
X174.1Y-115.0
X174.376Y-59.704
X174.425Y-90.375
X174.447Y-61.472
X174.5Y-136.95
X174.5Y-137.8
X174.525Y-138.6
X174.8Y-122.95
X174.818Y-58.307
X174.818Y-60.146
X174.85Y-50.55
X174.85Y-53.05
X174.875Y-51.75
X174.959Y-61.984
X175.0Y-101.975
X175.277Y-60.605
X175.313Y-58.802
X175.4Y-136.95
X175.4Y-137.8
X175.407Y-80.593
X175.425Y-90.35
X175.425Y-138.6
X175.432Y-66.618
X175.457Y-96.218
X175.575Y-50.55
X175.575Y-53.05
X175.6Y-51.75
X175.755Y-59.244
X175.79Y-61.118
X175.902Y-81.088
X175.927Y-67.113
X175.952Y-96.713
X176.214Y-59.704
X176.225Y-50.55
X176.225Y-53.05
X176.238Y-79.727
X176.25Y-51.75
X176.263Y-65.752
X176.288Y-95.352
X176.325Y-136.925
X176.325Y-137.775
X176.344Y-81.53
X176.35Y-138.575
X176.369Y-67.555
X176.394Y-97.155
X176.5Y-101.725
X176.727Y-60.216
X176.733Y-80.222
X176.758Y-66.247
X176.783Y-95.847
X176.804Y-81.989
X176.829Y-68.014
X176.85Y-50.55
X176.85Y-53.05
X176.854Y-97.614
X176.875Y-51.75
X177.125Y-109.95
X177.125Y-112.45
X177.15Y-111.15
X177.15Y-113.5
X177.15Y-116.0
X177.175Y-78.825
X177.175Y-80.663
X177.175Y-114.7
X177.2Y-64.85
X177.2Y-66.688
X177.225Y-94.45
X177.225Y-96.288
X177.316Y-82.502
X177.341Y-68.527
X177.366Y-98.127
X177.55Y-50.55
X177.55Y-53.05
X177.55Y-121.425
X177.575Y-51.75
X177.625Y-120.15
X177.635Y-81.123
X177.66Y-67.148
X177.67Y-79.32
X177.685Y-96.748
X177.695Y-65.345
X177.72Y-94.945
X177.85Y-109.95
X177.85Y-112.45
X177.875Y-111.15
X177.875Y-113.5
X177.875Y-116.0
X177.9Y-114.7
X178.112Y-79.762
X178.137Y-65.787
X178.147Y-81.636
X178.162Y-95.387
X178.172Y-67.661
X178.197Y-97.261
X178.45Y-102.5
X178.475Y-100.2
X178.5Y-109.95
X178.5Y-112.45
X178.525Y-111.15
X178.525Y-113.5
X178.525Y-116.0
X178.55Y-114.7
X178.572Y-80.222
X178.597Y-66.247
X178.622Y-95.847
X178.625Y-87.0
X178.7Y-71.975
X178.7Y-84.55
X178.975Y-138.0
X178.975Y-140.5
X179.0Y-129.975
X179.0Y-132.475
X179.0Y-139.2
X179.025Y-131.175
X179.084Y-80.734
X179.109Y-66.759
X179.125Y-109.95
X179.125Y-112.45
X179.134Y-96.359
X179.15Y-111.15
X179.15Y-113.5
X179.15Y-116.0
X179.175Y-114.7
X179.7Y-138.0
X179.7Y-140.5
X179.725Y-129.975
X179.725Y-132.475
X179.725Y-139.2
X179.75Y-131.175
X179.825Y-109.95
X179.825Y-112.45
X179.85Y-111.15
X179.85Y-113.5
X179.85Y-116.0
X179.875Y-114.7
X180.25Y-60.2
X180.35Y-138.0
X180.35Y-140.5
X180.375Y-129.975
X180.375Y-132.475
X180.375Y-139.2
X180.4Y-131.175
X180.975Y-138.0
X180.975Y-140.5
X181.0Y-129.975
X181.0Y-132.475
X181.0Y-139.2
X181.008Y-71.225
X181.025Y-131.175
X181.675Y-138.0
X181.675Y-140.5
X181.7Y-129.975
X181.7Y-132.475
X181.7Y-139.2
X181.725Y-131.175
X182.1Y-60.15
X182.14Y-70.094
X182.3Y-123.2
X183.3Y-98.65
X183.3Y-100.25
X183.35Y-102.1
X183.412Y-68.75
X183.7Y-60.15
X183.85Y-92.15
X184.225Y-121.9
X184.25Y-76.6
X184.25Y-78.2
X184.3Y-80.05
X184.375Y-136.85
X184.375Y-137.7
X184.4Y-138.5
X184.8Y-71.2
X185.275Y-136.85
X185.275Y-137.7
X185.3Y-138.5
X185.475Y-107.325
X185.475Y-108.025
X185.475Y-108.65
X185.475Y-109.3
X185.475Y-110.025
X185.575Y-117.3
X185.575Y-118.0
X185.575Y-118.625
X185.575Y-119.275
X185.575Y-120.0
X185.95Y-92.05
X186.2Y-136.825
X186.2Y-137.675
X186.225Y-138.475
X186.675Y-108.0
X186.675Y-108.625
X186.675Y-110.0
X186.675Y-107.3
X186.675Y-109.275
X186.7Y-121.825
X186.775Y-117.975
X186.775Y-118.6
X186.775Y-119.975
X186.775Y-117.275
X186.775Y-119.25
X187.425Y-79.425
X187.52Y-131.033
X187.92Y-78.93
X187.975Y-107.325
X187.975Y-108.025
X187.975Y-108.65
X187.975Y-109.3
X187.975Y-110.025
X188.032Y-130.521
X188.075Y-117.3
X188.075Y-118.0
X188.075Y-118.625
X188.075Y-119.275
X188.075Y-120.0
X188.2Y-71.65
X188.327Y-80.362
X188.362Y-78.488
X188.386Y-131.864
X188.492Y-130.061
X188.822Y-78.028
X188.822Y-79.867
X188.898Y-131.352
X188.934Y-129.619
X188.975Y-97.3
X188.975Y-99.8
X188.975Y-121.825
X189.0Y-98.5
X189.025Y-107.3
X189.025Y-108.0
X189.025Y-108.625
X189.025Y-110.0
X189.025Y-109.275
X189.05Y-138.125
X189.05Y-140.625
X189.075Y-139.325
X189.125Y-117.275
X189.125Y-117.975
X189.125Y-118.6
X189.125Y-119.975
X189.125Y-119.25
X189.193Y-81.193
X189.263Y-79.425
X189.287Y-132.801
X189.325Y-65.95
X189.325Y-68.45
X189.334Y-77.516
X189.35Y-67.15
X189.358Y-130.892
X189.429Y-129.124
X189.688Y-80.698
X189.7Y-97.3
X189.7Y-99.8
X189.723Y-78.965
X189.725Y-98.5
X189.775Y-138.125
X189.775Y-140.625
X189.8Y-130.45
X189.8Y-132.288
X189.8Y-139.325
X190.05Y-65.95
X190.05Y-68.45
X190.075Y-67.15
X190.13Y-80.256
X190.225Y-107.275
X190.225Y-107.975
X190.225Y-108.6
X190.225Y-109.25
X190.225Y-109.975
X190.236Y-78.453
X190.26Y-131.829
X190.295Y-129.955
X190.3Y-62.2
X190.325Y-117.25
X190.325Y-117.95
X190.325Y-118.575
X190.325Y-119.225
X190.325Y-119.95
X190.35Y-97.3
X190.35Y-99.8
X190.375Y-98.5
X190.425Y-138.125
X190.425Y-140.625
X190.45Y-139.325
X190.589Y-79.796
X190.7Y-65.95
X190.7Y-68.45
X190.7Y-85.0
X190.702Y-131.387
X190.725Y-67.15
X190.975Y-97.3
X190.975Y-99.8
X191.0Y-98.5
X191.05Y-138.125
X191.05Y-140.625
X191.075Y-139.325
X191.102Y-79.284
X191.197Y-130.892
X191.325Y-65.95
X191.325Y-68.45
X191.35Y-67.15
X191.525Y-107.3
X191.525Y-108.0
X191.525Y-108.625
X191.525Y-110.0
X191.525Y-109.275
X191.625Y-117.275
X191.625Y-117.975
X191.625Y-118.6
X191.625Y-119.975
X191.625Y-119.25
X191.675Y-97.3
X191.675Y-99.8
X191.7Y-98.5
X191.75Y-138.125
X191.75Y-140.625
X191.775Y-139.325
X191.8Y-88.91
X192.025Y-65.95
X192.025Y-68.45
X192.05Y-67.15
X192.15Y-62.15
X193.75Y-62.15
X194.2Y-137.0
X194.2Y-137.85
X194.225Y-138.65
X195.1Y-137.0
X195.1Y-137.85
X195.125Y-138.65
X195.275Y-52.375
X195.275Y-53.225
X195.3Y-54.025
X195.6Y-66.95
X195.6Y-67.65
X195.6Y-68.275
X195.6Y-68.925
X195.6Y-69.65
X195.9Y-62.25
X196.025Y-136.975
X196.025Y-137.825
X196.05Y-138.625
X196.175Y-52.375
X196.175Y-53.225
X196.2Y-54.025
X196.775Y-112.8
X196.775Y-113.65
X196.8Y-114.45
X196.825Y-122.675
X196.825Y-123.525
X196.85Y-102.1
X196.85Y-102.95
X196.85Y-124.325
X196.875Y-103.75
X196.9Y-66.975
X196.9Y-67.675
X196.9Y-68.3
X196.9Y-68.95
X196.9Y-69.675
X197.0Y-72.05
X197.0Y-72.9
X197.0Y-82.75
X197.0Y-83.6
X197.025Y-73.7
X197.025Y-84.4
X197.025Y-92.85
X197.025Y-93.7
X197.05Y-94.5
X197.1Y-52.35
X197.1Y-53.2
X197.125Y-54.0
X197.675Y-112.8
X197.675Y-113.65
X197.7Y-114.45
X197.725Y-122.675
X197.725Y-123.525
X197.75Y-62.2
X197.75Y-102.1
X197.75Y-102.95
X197.75Y-124.325
X197.775Y-103.75
X197.825Y-97.35
X197.825Y-99.85
X197.85Y-98.55
X197.9Y-72.05
X197.9Y-72.9
X197.9Y-82.75
X197.9Y-83.6
X197.925Y-73.7
X197.925Y-77.25
X197.925Y-79.75
X197.925Y-84.4
X197.925Y-92.85
X197.925Y-93.7
X197.95Y-78.45
X197.95Y-94.5
X198.15Y-66.9
X198.15Y-67.6
X198.15Y-68.875
X198.15Y-69.6
X198.15Y-68.225
X198.55Y-97.35
X198.55Y-99.85
X198.575Y-98.55
X198.6Y-112.775
X198.6Y-113.625
X198.625Y-114.425
X198.65Y-77.25
X198.65Y-79.75
X198.65Y-122.65
X198.65Y-123.5
X198.675Y-78.45
X198.675Y-102.075
X198.675Y-102.925
X198.675Y-124.3
X198.7Y-103.725
X198.825Y-72.025
X198.825Y-72.875
X198.825Y-82.725
X198.825Y-83.575
X198.85Y-73.675
X198.85Y-84.375
X198.85Y-92.825
X198.85Y-93.675
X198.875Y-94.475
X199.2Y-97.35
X199.2Y-99.85
X199.225Y-98.55
X199.3Y-77.25
X199.3Y-79.75
X199.325Y-78.45
X199.35Y-62.2
X199.35Y-66.875
X199.35Y-67.575
X199.35Y-68.2
X199.35Y-68.85
X199.35Y-69.575
X199.825Y-97.35
X199.825Y-99.85
X199.85Y-98.55
X199.85Y-149.975
X199.925Y-77.25
X199.925Y-79.75
X199.95Y-78.45
X200.125Y-40.15
X200.125Y-41.0
X200.15Y-41.8
X200.433Y-150.523
X200.486Y-149.303
X200.525Y-97.35
X200.525Y-99.85
X200.55Y-98.55
X200.625Y-77.25
X200.625Y-79.75
X200.65Y-66.9
X200.65Y-67.6
X200.65Y-68.225
X200.65Y-68.875
X200.65Y-69.6
X200.65Y-78.45
X201.025Y-40.15
X201.025Y-41.0
X201.034Y-151.124
X201.05Y-41.8
X201.05Y-127.575
X201.05Y-128.425
X201.07Y-149.851
X201.075Y-129.225
X201.123Y-148.667
X201.25Y-49.75
X201.25Y-50.6
X201.275Y-51.4
X201.671Y-150.452
X201.706Y-149.215
X201.95Y-40.125
X201.95Y-40.975
X201.95Y-127.575
X201.95Y-128.425
X201.975Y-41.775
X201.975Y-129.225
X202.15Y-49.75
X202.15Y-50.6
X202.175Y-51.4
X202.307Y-149.816
X202.875Y-127.55
X202.875Y-128.4
X202.9Y-129.2
X203.075Y-49.725
X203.075Y-50.575
X203.1Y-51.375
X205.175Y-138.25
X205.2Y-139.175
X205.2Y-140.075
X205.55Y-110.25
X205.575Y-111.175
X205.575Y-112.075
X205.575Y-113.275
X205.6Y-114.2
X205.6Y-115.1
X205.625Y-116.375
X205.65Y-117.3
X205.65Y-118.2
X206.025Y-138.25
X206.05Y-139.175
X206.05Y-140.075
X206.25Y-59.775
X206.25Y-60.625
X206.25Y-95.7
X206.275Y-61.425
X206.275Y-96.625
X206.275Y-97.525
X206.275Y-98.725
X206.3Y-99.65
X206.3Y-100.55
X206.325Y-101.825
X206.35Y-102.75
X206.35Y-103.65
X206.825Y-138.225
X206.85Y-139.15
X206.85Y-140.05
X207.0Y-66.9
X207.025Y-67.825
X207.025Y-68.725
X207.05Y-70.0
X207.075Y-70.925
X207.075Y-71.825
X207.15Y-59.775
X207.15Y-60.625
X207.175Y-61.425
X207.625Y-76.675
X207.65Y-77.6
X207.65Y-78.5
X207.65Y-79.7
X207.675Y-80.625
X207.675Y-81.525
X207.7Y-82.8
X207.725Y-83.725
X207.725Y-84.625
X208.075Y-59.75
X208.075Y-60.6
X208.1Y-61.4
X208.15Y-88.225
X208.15Y-89.075
X208.175Y-89.875
X208.925Y-140.225
X208.925Y-141.075
X208.95Y-141.875
X208.975Y-135.4
X208.975Y-136.25
X209.0Y-137.05
X209.05Y-50.125
X209.05Y-50.975
X209.05Y-88.225
X209.05Y-89.075
X209.075Y-51.775
X209.075Y-89.875
X209.825Y-140.225
X209.825Y-141.075
X209.85Y-141.875
X209.875Y-135.4
X209.875Y-136.25
X209.9Y-137.05
X209.95Y-50.125
X209.95Y-50.975
X209.975Y-51.775
X209.975Y-88.2
X209.975Y-89.05
X210.0Y-89.85
X210.75Y-140.2
X210.75Y-141.05
X210.775Y-141.85
X210.8Y-135.375
X210.8Y-136.225
X210.825Y-137.025
X210.875Y-50.1
X210.875Y-50.95
X210.9Y-51.75
X211.25Y-107.1
X211.275Y-92.6
X211.275Y-108.025
X211.275Y-108.925
X211.3Y-93.525
X211.3Y-94.425
X211.3Y-110.2
X211.3Y-124.65
X211.325Y-95.7
X211.325Y-111.125
X211.325Y-112.025
X211.325Y-125.575
X211.325Y-126.475
X211.35Y-96.625
X211.35Y-97.525
X211.35Y-127.75
X211.375Y-128.675
X211.375Y-129.575
T2
X155.89Y-119.88
X162.49Y-112.38
X180.155Y-82.31
X180.162Y-68.375
X180.2Y-97.825
X187.655Y-88.91
X187.662Y-74.975
X187.7Y-104.425
T3
X145.34Y-105.85
X155.5Y-105.85
X173.95Y-94.215
X173.95Y-104.375
X174.05Y-64.475
X174.05Y-74.635
X174.4Y-78.12
X174.4Y-88.28
T4
X72.63Y-68.25
X72.63Y-71.25
X72.63Y-74.25
X72.63Y-77.25
X72.63Y-80.25
X72.63Y-83.25
X72.63Y-86.25
X72.63Y-89.25
X72.63Y-92.25
X72.63Y-106.75
X72.63Y-109.75
X72.63Y-112.75
X72.63Y-115.75
X72.63Y-118.75
X72.63Y-121.75
X72.63Y-124.75
X75.13Y-69.75
X75.13Y-72.75
X75.13Y-75.75
X75.13Y-78.75
X75.13Y-81.75
X75.13Y-84.75
X75.13Y-87.75
X75.13Y-90.75
X75.13Y-108.25
X75.13Y-111.25
X75.13Y-114.25
X75.13Y-117.25
X75.13Y-120.25
X75.13Y-123.25
X76.85Y-133.9
X76.85Y-142.1
X77.7Y-49.2
X77.7Y-57.4
X78.13Y-69.75
X78.13Y-72.75
X78.13Y-75.75
X78.13Y-78.75
X78.13Y-81.75
X78.13Y-84.75
X78.13Y-87.75
X78.13Y-90.75
X78.13Y-108.25
X78.13Y-111.25
X78.13Y-114.25
X78.13Y-117.25
X78.13Y-120.25
X78.13Y-123.25
X80.63Y-68.25
X80.63Y-71.25
X80.63Y-74.25
X80.63Y-77.25
X80.63Y-80.25
X80.63Y-83.25
X80.63Y-86.25
X80.63Y-89.25
X80.63Y-92.25
X80.63Y-106.75
X80.63Y-109.75
X80.63Y-112.75
X80.63Y-115.75
X80.63Y-118.75
X80.63Y-121.75
X80.63Y-124.75
X81.85Y-133.9
X81.85Y-142.1
X82.7Y-49.2
X82.7Y-57.4
X86.85Y-133.9
X86.85Y-142.1
X87.7Y-49.2
X87.7Y-57.4
X91.85Y-133.9
X91.85Y-142.1
X92.7Y-49.2
X92.7Y-57.4
X96.85Y-133.9
X96.85Y-142.1
X97.7Y-49.2
X97.7Y-57.4
X101.85Y-133.9
X101.85Y-142.1
X102.7Y-49.2
X102.7Y-57.4
X106.85Y-133.9
X106.85Y-142.1
X107.7Y-49.2
X107.7Y-57.4
X111.85Y-133.9
X111.85Y-142.1
X112.7Y-49.2
X112.7Y-57.4
X116.85Y-133.9
X116.85Y-142.1
X117.7Y-49.2
X117.7Y-57.4
X121.85Y-133.9
X121.85Y-142.1
X122.7Y-49.2
X122.7Y-57.4
X126.85Y-133.9
X126.85Y-142.1
X127.7Y-49.2
X127.7Y-57.4
X131.85Y-133.9
X131.85Y-142.1
X132.7Y-49.2
X132.7Y-57.4
X140.35Y-133.9
X140.35Y-142.1
X141.2Y-49.2
X141.2Y-57.4
X145.35Y-133.9
X145.35Y-142.1
X146.2Y-49.2
X146.2Y-57.4
X150.35Y-133.9
X150.35Y-142.1
X151.2Y-49.2
X151.2Y-57.4
X155.35Y-133.9
X155.35Y-142.1
X156.2Y-49.2
X156.2Y-57.4
X160.35Y-133.9
X160.35Y-142.1
X161.2Y-49.2
X161.2Y-57.4
X165.35Y-133.9
X165.35Y-142.1
X166.2Y-49.2
X166.2Y-57.4
X170.35Y-133.9
X170.35Y-142.1
X171.2Y-49.2
X171.2Y-57.4
X175.35Y-133.9
X175.35Y-142.1
X176.2Y-49.2
X176.2Y-57.4
X180.35Y-133.9
X180.35Y-142.1
X181.2Y-49.2
X181.2Y-57.4
X185.35Y-133.9
X185.35Y-142.1
X186.2Y-49.2
X186.2Y-57.4
X190.35Y-133.9
X190.35Y-142.1
X191.2Y-49.2
X191.2Y-57.4
X193.85Y-68.55
X193.85Y-73.55
X193.85Y-78.55
X193.85Y-83.55
X193.85Y-88.55
X193.85Y-93.55
X193.85Y-98.55
X193.85Y-103.55
X193.85Y-108.55
X193.85Y-113.55
X193.85Y-118.55
X193.85Y-123.55
X195.35Y-133.9
X195.35Y-142.1
X196.2Y-49.2
X196.2Y-57.4
X202.05Y-68.55
X202.05Y-73.55
X202.05Y-78.55
X202.05Y-83.55
X202.05Y-88.55
X202.05Y-93.55
X202.05Y-98.55
X202.05Y-103.55
X202.05Y-108.55
X202.05Y-113.55
X202.05Y-118.55
X202.05Y-123.55
T5
X156.028Y-66.75
X156.028Y-70.15
X156.03Y-80.625
X156.03Y-84.025
X156.08Y-96.6
X156.08Y-100.0
X165.947Y-66.75
X165.947Y-70.15
X165.95Y-80.625
X165.95Y-84.025
X166.0Y-96.6
X166.0Y-100.0
X171.84Y-113.65
X171.84Y-117.05
X181.76Y-113.65
X181.76Y-117.05
T6
X163.09Y-119.38
X166.09Y-111.38
X179.155Y-78.71
X179.162Y-64.775
X179.2Y-94.225
X187.155Y-81.71
X187.162Y-67.775
X187.2Y-97.225
T7
X66.13Y-61.0
X66.13Y-99.5
X66.13Y-132.0
T8
X145.375Y-120.075
M30
